<?xml version="1.0" standalone="no"?>
<!DOCTYPE svg PUBLIC "-//W3C//DTD SVG 20010904//EN"
 "http://www.w3.org/TR/2001/REC-SVG-20010904/DTD/svg10.dtd">
<svg version="1.0" xmlns="http://www.w3.org/2000/svg"
 width="956.000000pt" height="960.000000pt" viewBox="0 0 956.000000 960.000000"
 preserveAspectRatio="xMidYMid meet">
<metadata>
Created by potrace 1.16, written by Peter Selinger 2001-2019
</metadata>
<g transform="translate(0.000000,960.000000) scale(0.100000,-0.100000)"
fill="#000000" stroke="none">
<path d="M0 4800 l0 -4800 4780 0 4780 0 0 4800 0 4800 -4780 0 -4780 0 0
-4800z m1767 4123 c-49 -98 -62 -167 -62 -323 1 -130 3 -153 27 -220 59 -168
160 -300 296 -390 131 -86 248 -120 413 -120 286 0 536 153 658 402 52 105 71
179 78 298 6 98 -12 227 -42 295 -7 16 -20 47 -29 68 l-17 38 555 -3 c538 -3
555 -4 576 -23 56 -51 55 -36 58 -607 2 -291 1 -528 -3 -528 -3 0 -20 7 -38
17 -56 29 -129 44 -242 50 -172 9 -324 -35 -460 -132 -223 -159 -348 -449
-306 -710 48 -293 234 -512 517 -607 60 -20 88 -23 219 -23 137 1 157 3 228
28 42 15 80 27 83 27 2 0 4 -238 2 -528 l-3 -529 -29 -37 c-51 -67 -38 -66
-616 -66 -286 0 -520 2 -520 4 0 2 10 25 22 52 116 263 19 632 -219 829 -76
63 -198 126 -289 149 -96 25 -303 22 -390 -5 -244 -75 -415 -244 -501 -494
-26 -74 -28 -92 -27 -225 0 -131 3 -152 27 -221 15 -41 27 -79 27 -82 0 -4
-234 -7 -520 -7 -582 0 -555 -3 -606 72 l-29 43 -3 509 c-1 281 0 516 2 523 4
10 13 9 43 -4 100 -41 306 -55 435 -28 104 22 242 93 322 167 233 213 310 517
207 809 -39 110 -85 181 -176 274 -66 67 -97 90 -175 129 -119 59 -179 75
-305 83 -106 6 -239 -13 -296 -43 -63 -32 -59 -65 -59 502 0 568 -1 556 62
609 l30 25 549 0 549 0 -23 -47z m7116 24 c57 -37 54 38 60 -1387 4 -723 4
-1328 0 -1344 -6 -28 -7 -28 -53 -23 -27 3 -92 -1 -147 -9 -77 -11 -118 -24
-191 -59 -118 -56 92 149 -2741 -2685 -1813 -1813 -2274 -2279 -2313 -2338
-63 -98 -87 -178 -101 -339 l-11 -133 -1335 0 c-1047 0 -1341 3 -1361 13 -13
7 -38 34 -55 61 l-30 49 0 1974 0 1973 1795 -1 c1244 0 1816 3 1863 11 157 25
294 98 410 219 108 113 169 241 197 411 7 44 10 646 10 1840 0 976 0 1778 0
1783 0 4 895 6 1988 5 1878 -3 1989 -4 2015 -21z"/>
</g>
</svg>
